<svg width="78" height="78" viewBox="0 0 78 78" fill="none" xmlns="http://www.w3.org/2000/svg">
<rect x="0.5" y="0.5" width="77" height="77" rx="38.5" stroke="white" stroke-opacity="0.3"/>
<path d="M39 23.5833C47.5146 23.5833 54.4167 30.4853 54.4167 38.9999C54.4167 47.5145 47.5146 54.4166 39 54.4166C30.4854 54.4166 23.5833 47.5145 23.5833 38.9999C23.5833 30.4853 30.4854 23.5833 39 23.5833ZM39 29.7499C38.5911 29.7499 38.199 29.9123 37.9099 30.2015C37.6208 30.4906 37.4583 30.8827 37.4583 31.2916V38.9999C37.4584 39.4088 37.6209 39.8008 37.9101 40.0899L42.5351 44.7149C42.8258 44.9957 43.2152 45.1511 43.6195 45.1476C44.0237 45.1441 44.4104 44.9819 44.6962 44.6961C44.982 44.4103 45.1442 44.0236 45.1477 43.6194C45.1512 43.2152 44.9958 42.8257 44.715 42.535L40.5417 38.3617V31.2916C40.5417 30.8827 40.3793 30.4906 40.0901 30.2015C39.801 29.9123 39.4089 29.7499 39 29.7499Z" fill="white"/>
</svg>
