<svg width="63" height="63" viewBox="0 0 63 63" fill="none" xmlns="http://www.w3.org/2000/svg">
<rect width="63" height="63" rx="15" fill="white"/>
<path d="M31.4209 46.3049C39.839 46.3049 46.6632 39.7014 46.6632 31.5555C46.6632 23.4097 39.839 16.8062 31.4209 16.8062C23.0028 16.8062 16.1786 23.4097 16.1786 31.5555C16.1786 39.7014 23.0028 46.3049 31.4209 46.3049Z" fill="#3072DB"/>
<path d="M31.4209 43.9245C38.3493 43.9245 43.966 38.6813 43.966 32.2135C43.966 25.7456 38.3493 20.5024 31.4209 20.5024C24.4925 20.5024 18.8759 25.7456 18.8759 32.2135C18.8759 38.6813 24.4925 43.9245 31.4209 43.9245Z" stroke="#262626" stroke-width="0.16" stroke-miterlimit="10"/>
<path d="M31.5522 44.4926C38.9484 44.4926 44.9442 38.7538 44.9442 31.6746C44.9442 24.5955 38.9484 18.8567 31.5522 18.8567C24.1561 18.8567 18.1603 24.5955 18.1603 31.6746C18.1603 38.7538 24.1561 44.4926 31.5522 44.4926Z" fill="#458BFF"/>
<path d="M44.7859 30.0322C43.8211 24.0012 38.2987 19.4265 31.6179 19.4265C24.2585 19.4265 18.2933 25.0379 18.2933 31.9604C18.2933 32.4028 18.2007 32.8404 18.2478 33.2698C17.2831 27.2371 22.0479 18.8567 31.5404 18.8567C38.43 18.8567 44.0888 23.7253 44.7842 30.0322H44.7859Z" fill="#1C5EC7"/>
<path d="M44.9424 31.9802C44.9424 38.9728 38.9772 44.6414 31.6179 44.6414C24.7283 44.6414 18.9432 39.7663 18.2478 33.3973C19.2125 39.4887 24.8613 44.0667 31.5404 44.0667C38.8997 44.0667 44.865 38.3981 44.865 31.4055C44.865 30.9597 44.8414 30.5173 44.7926 30.083C44.8903 30.7018 44.9408 31.3353 44.9408 31.9802H44.9424Z" fill="#94BEFF"/>
<path d="M34.0676 40.2641V37.1523C34.0676 35.6094 32.7745 34.3555 31.1834 34.3555C29.5924 34.3555 28.2993 35.6094 28.2993 37.1523V40.2641H25.3596V37.1523C25.3596 34.0388 27.9727 31.5049 31.1834 31.5049C31.4158 31.5049 31.6498 31.518 31.8805 31.5457H33.5372C34.6552 31.5457 35.5644 30.6641 35.5644 29.58C35.5644 28.4959 34.6552 27.6143 33.5372 27.6143H28.3818V29.6192H25.5953V24.9106H28.4828V23.469H30.9309V24.9106H31.1346V23.469H33.5827V24.9106C36.2176 24.9335 38.3525 27.0184 38.3525 29.5784C38.3525 31.3204 37.3625 32.8959 35.795 33.7025C36.5813 34.6886 37.0106 35.8984 37.0106 37.1523V40.2641H34.0709H34.0676Z" fill="#3072DB"/>
<path d="M37.5848 29.2665C37.5848 26.8698 35.5745 24.9204 33.1029 24.9204H32.815V23.4788H31.032V24.9204H30.1632V23.4788H28.3802V24.9204H25.4927V28.9841H27.6141V26.9792H33.1029C34.4044 26.9792 35.4617 28.0061 35.4617 29.2665C35.4617 30.5269 34.4027 31.5539 33.1029 31.5539H31.4259C31.2037 31.5277 30.9781 31.513 30.7491 31.513C27.7202 31.513 25.257 33.9016 25.257 36.8388V39.6273H27.5316V36.8388C27.5316 35.1196 28.9745 33.7188 30.7491 33.7188C32.5237 33.7188 33.9666 35.1179 33.9666 36.8388V39.6273H36.2412V36.8388C36.2412 35.4706 35.7058 34.22 34.827 33.2763C36.4433 32.62 37.5831 31.069 37.5831 29.2665H37.5848Z" fill="white"/>
</svg>
