<svg width="16" height="20" viewBox="0 0 16 20" fill="none" xmlns="http://www.w3.org/2000/svg">
<g clip-path="url(#clip0_134_3342)">
<path d="M13.3622 10.6051C13.3898 13.626 15.971 14.6313 15.9995 14.6441C15.9777 14.715 15.5871 16.0767 14.6397 17.4832C13.8207 18.6993 12.9707 19.9109 11.6316 19.9359C10.316 19.9606 9.89284 19.1434 8.38859 19.1434C6.88478 19.1434 6.41472 19.9109 5.16922 19.9606C3.87672 20.0103 2.89247 18.6457 2.06672 17.434C0.379216 14.9557 -0.910347 10.4309 0.821216 7.37651C1.6814 5.85968 3.21872 4.89924 4.88722 4.8746C6.1564 4.85003 7.3544 5.74203 8.13028 5.74203C8.90565 5.74203 10.3615 4.66933 11.8919 4.82686C12.5325 4.85397 14.331 5.08971 15.4858 6.80692C15.3927 6.86552 13.3399 8.07956 13.3622 10.6051M10.8895 3.18724C11.5758 2.34343 12.0376 1.16883 11.9116 0C10.9225 0.040381 9.72647 0.669587 9.01697 1.51289C8.38115 2.25975 7.82434 3.45505 7.97459 4.6007C9.07709 4.68737 10.2033 4.03156 10.8895 3.18724Z" fill="black"/>
</g>
<defs>
<clipPath id="clip0_134_3342">
<rect width="16" height="20" fill="white"/>
</clipPath>
</defs>
</svg>
