<svg width="60" height="60" viewBox="0 0 60 60" fill="none" xmlns="http://www.w3.org/2000/svg">
<path d="M6.875 18.925C6.875 12.4 12.6175 6.875 20 6.875C25.455 6.875 30.06 9.92 32.055 14.15C32.2672 14.5999 32.6494 14.947 33.1175 15.1151C33.5856 15.2832 34.1014 15.2584 34.5512 15.0462C35.0011 14.8341 35.3483 14.4519 35.5164 13.9837C35.6844 13.5156 35.6597 12.9999 35.4475 12.55C32.805 6.95 26.8425 3.125 20 3.125C10.815 3.125 3.125 10.07 3.125 18.925C3.125 22.2 4.19 25.235 5.9975 27.745L4.2175 32.975C3.3175 35.6225 6.26 37.9125 8.605 36.4L13.24 33.405C14.0667 33.7433 14.925 34.0192 15.815 34.2325C16.2967 34.3424 16.8024 34.2578 17.222 33.9969C17.6417 33.7361 17.9414 33.3201 18.056 32.8395C18.1706 32.3589 18.0909 31.8524 17.8342 31.4303C17.5775 31.0081 17.1645 30.7043 16.685 30.585C15.721 30.3549 14.7848 30.0213 13.8925 29.59L12.9425 29.1325L8.5125 31.995L10.2075 27.0075L9.54 26.2025C7.82718 24.1634 6.88407 21.588 6.875 18.925ZM30.5 36.55C29.675 34.075 30.65 31.025 33.35 30.175C34.75 29.75 36.5 30.1 37.5 31.425C38.45 30.05 40.25 29.75 41.65 30.175C44.35 31 45.325 34.075 44.5 36.55C43.225 40.475 38.75 42.5 37.5 42.5C36.25 42.5 31.825 40.5 30.5 36.55Z" fill="white"/>
<path d="M37.5 18.125C26.9325 18.125 18.125 26.1125 18.125 36.25C18.125 46.3875 26.9325 54.375 37.5 54.375C40.2176 54.3792 42.909 53.8429 45.4175 52.7975L50.9625 56.38C53.45 57.9875 56.5725 55.555 55.6175 52.75L53.49 46.49C55.6838 43.5262 56.8701 39.9374 56.875 36.25C56.875 26.1125 48.0675 18.125 37.5 18.125ZM21.875 36.25C21.875 28.44 28.7375 21.875 37.5 21.875C46.2625 21.875 53.125 28.44 53.125 36.25C53.1153 39.4309 51.989 42.5073 49.9425 44.9425L49.275 45.75L51.4875 52.255L45.7125 48.52L44.7625 48.98C42.4969 50.0696 40.014 50.632 37.5 50.625C28.7375 50.625 21.875 44.06 21.875 36.25ZM13.75 13.75C13.4185 13.75 13.1005 13.8817 12.8661 14.1161C12.6317 14.3505 12.5 14.6685 12.5 15C12.5 15.3315 12.6317 15.6495 12.8661 15.8839C13.1005 16.1183 13.4185 16.25 13.75 16.25H26.25C26.5815 16.25 26.8995 16.1183 27.1339 15.8839C27.3683 15.6495 27.5 15.3315 27.5 15C27.5 14.6685 27.3683 14.3505 27.1339 14.1161C26.8995 13.8817 26.5815 13.75 26.25 13.75H13.75ZM12.5 25C12.5 24.6685 12.6317 24.3505 12.8661 24.1161C13.1005 23.8817 13.4185 23.75 13.75 23.75H16.25C16.5815 23.75 16.8995 23.8817 17.1339 24.1161C17.3683 24.3505 17.5 24.6685 17.5 25C17.5 25.3315 17.3683 25.6495 17.1339 25.8839C16.8995 26.1183 16.5815 26.25 16.25 26.25H13.75C13.4185 26.25 13.1005 26.1183 12.8661 25.8839C12.6317 25.6495 12.5 25.3315 12.5 25ZM13.75 18.75C13.4185 18.75 13.1005 18.8817 12.8661 19.1161C12.6317 19.3505 12.5 19.6685 12.5 20C12.5 20.3315 12.6317 20.6495 12.8661 20.8839C13.1005 21.1183 13.4185 21.25 13.75 21.25H21.25C21.5815 21.25 21.8995 21.1183 22.1339 20.8839C22.3683 20.6495 22.5 20.3315 22.5 20C22.5 19.6685 22.3683 19.3505 22.1339 19.1161C21.8995 18.8817 21.5815 18.75 21.25 18.75H13.75Z" fill="white"/>
</svg>
