<svg width="28" height="27" viewBox="0 0 28 27" fill="none" xmlns="http://www.w3.org/2000/svg">
<path d="M13.9279 26.9169C21.5807 26.9169 27.7846 20.9325 27.7846 13.5503C27.7846 6.16813 21.5807 0.183685 13.9279 0.183685C6.27512 0.183685 0.0712891 6.16813 0.0712891 13.5503C0.0712891 20.9325 6.27512 26.9169 13.9279 26.9169Z" fill="#3072DB"/>
<path d="M13.928 24.7597C20.2266 24.7597 25.3326 20.008 25.3326 14.1466C25.3326 8.28513 20.2266 3.53348 13.928 3.53348C7.62945 3.53348 2.52344 8.28513 2.52344 14.1466C2.52344 20.008 7.62945 24.7597 13.928 24.7597Z" stroke="#262626" stroke-width="0.16" stroke-miterlimit="10"/>
<path d="M14.0475 25.2746C20.7713 25.2746 26.222 20.0738 26.222 13.6583C26.222 7.24284 20.7713 2.04205 14.0475 2.04205C7.32375 2.04205 1.87305 7.24284 1.87305 13.6583C1.87305 20.0738 7.32375 25.2746 14.0475 25.2746Z" fill="#458BFF"/>
<path d="M26.0781 12.1699C25.2011 6.70425 20.1807 2.55843 14.1072 2.55843C7.4169 2.55843 1.99394 7.64379 1.99394 13.9173C1.99394 14.3182 1.90976 14.7148 1.95262 15.1039C1.07557 9.6368 5.40721 2.04205 14.0368 2.04205C20.3001 2.04205 25.4445 6.4542 26.0766 12.1699H26.0781Z" fill="#1C5EC7"/>
<path d="M26.2205 13.935C26.2205 20.2721 20.7975 25.4092 14.1072 25.4092C7.84396 25.4092 2.58478 20.9912 1.95264 15.2193C2.82968 20.7397 7.96488 24.8884 14.0368 24.8884C20.7271 24.8884 26.1501 19.7513 26.1501 13.4142C26.1501 13.0103 26.1287 12.6093 26.0843 12.2157C26.173 12.7765 26.219 13.3506 26.219 13.935H26.2205Z" fill="#94BEFF"/>
<path d="M16.3343 21.4425V18.6224C16.3343 17.2241 15.1588 16.0878 13.7124 16.0878C12.2659 16.0878 11.0904 17.2241 11.0904 18.6224V21.4425H8.41797V18.6224C8.41797 15.8008 10.7935 13.5044 13.7124 13.5044C13.9236 13.5044 14.1363 13.5163 14.346 13.5414H15.8522C16.8685 13.5414 17.695 12.7425 17.695 11.76C17.695 10.7776 16.8685 9.97858 15.8522 9.97858H11.1654V11.7955H8.63225V7.52837H11.2573V6.22189H13.4828V7.52837H13.668V6.22189H15.8935V7.52837C18.2889 7.54909 20.2297 9.43853 20.2297 11.7585C20.2297 13.3372 19.3297 14.7651 17.9047 15.496C18.6195 16.3896 19.0098 17.486 19.0098 18.6224V21.4425H16.3374H16.3343Z" fill="#3072DB"/>
<path d="M19.5318 11.4759C19.5318 9.30389 17.7043 7.53725 15.4574 7.53725H15.1956V6.23077H13.5747V7.53725H12.7849V6.23077H11.164V7.53725H8.53899V11.22H10.4676V9.40302H15.4574C16.6405 9.40302 17.6017 10.3337 17.6017 11.4759C17.6017 12.6182 16.639 13.5488 15.4574 13.5488H13.9329C13.7308 13.5252 13.5257 13.5118 13.3176 13.5118C10.564 13.5118 8.32471 15.6765 8.32471 18.3383V20.8654H10.3926V18.3383C10.3926 16.7803 11.7043 15.5108 13.3176 15.5108C14.9308 15.5108 16.2426 16.7788 16.2426 18.3383V20.8654H18.3104V18.3383C18.3104 17.0984 17.8237 15.965 17.0247 15.1098C18.4941 14.515 19.5303 13.1094 19.5303 11.4759H19.5318Z" fill="white"/>
</svg>
