<svg width="31" height="30" viewBox="0 0 31 30" fill="none" xmlns="http://www.w3.org/2000/svg">
<path d="M15.421 29.8049C23.8391 29.8049 30.6633 23.2014 30.6633 15.0555C30.6633 6.90965 23.8391 0.306122 15.421 0.306122C7.00292 0.306122 0.178711 6.90965 0.178711 15.0555C0.178711 23.2014 7.00292 29.8049 15.421 29.8049Z" fill="#3072DB"/>
<path d="M15.421 27.4245C22.3495 27.4245 27.9661 22.1813 27.9661 15.7135C27.9661 9.24566 22.3495 4.00246 15.421 4.00246C8.49259 4.00246 2.87598 9.24566 2.87598 15.7135C2.87598 22.1813 8.49259 27.4245 15.421 27.4245Z" stroke="#262626" stroke-width="0.16" stroke-miterlimit="10"/>
<path d="M15.5521 27.9927C22.9483 27.9927 28.944 22.2539 28.944 15.1747C28.944 8.09553 22.9483 2.35674 15.5521 2.35674C8.15593 2.35674 2.16016 8.09553 2.16016 15.1747C2.16016 22.2539 8.15593 27.9927 15.5521 27.9927Z" fill="#458BFF"/>
<path d="M28.786 13.5322C27.8212 7.50122 22.2988 2.92653 15.618 2.92653C8.25864 2.92653 2.29339 8.53796 2.29339 15.4604C2.29339 15.9029 2.20078 16.3404 2.24793 16.7698C1.28318 10.7371 6.04798 2.35674 15.5405 2.35674C22.4301 2.35674 28.0889 7.22531 28.7843 13.5322H28.786Z" fill="#1C5EC7"/>
<path d="M28.9427 15.48C28.9427 22.4727 22.9774 28.1412 15.6181 28.1412C8.72851 28.1412 2.9434 23.2661 2.24805 16.8971C3.21279 22.9886 8.86152 27.5665 15.5407 27.5665C22.9 27.5665 28.8652 21.898 28.8652 14.9053C28.8652 14.4596 28.8417 14.0171 28.7928 13.5829C28.8905 14.2016 28.941 14.8351 28.941 15.48H28.9427Z" fill="#94BEFF"/>
<path d="M18.0673 23.7641V20.6522C18.0673 19.1094 16.7743 17.8555 15.1832 17.8555C13.5921 17.8555 12.2991 19.1094 12.2991 20.6522V23.7641H9.35938V20.6522C9.35938 17.5388 11.9724 15.0049 15.1832 15.0049C15.4155 15.0049 15.6496 15.018 15.8802 15.0457H17.537C18.6549 15.0457 19.5641 14.1641 19.5641 13.08C19.5641 11.9959 18.6549 11.1143 17.537 11.1143H12.3816V13.1192H9.59509V8.41061H12.4826V6.96898H14.9306V8.41061H15.1344V6.96898H17.5824V8.41061C20.2174 8.43347 22.3523 10.5184 22.3523 13.0784C22.3523 14.8204 21.3623 16.3959 19.7948 17.2024C20.5811 18.1886 21.0104 19.3984 21.0104 20.6522V23.7641H18.0707H18.0673Z" fill="#3072DB"/>
<path d="M21.5847 12.7665C21.5847 10.3698 19.5744 8.42041 17.1028 8.42041H16.8148V6.97878H15.0318V8.42041H14.1631V6.97878H12.3801V8.42041H9.49255V12.4841H11.614V10.4792H17.1028C18.4042 10.4792 19.4616 11.5061 19.4616 12.7665C19.4616 14.0269 18.4025 15.0539 17.1028 15.0539H15.4258C15.2036 15.0278 14.978 15.0131 14.749 15.0131C11.72 15.0131 9.25684 17.4016 9.25684 20.3388V23.1273H11.5315V20.3388C11.5315 18.6196 12.9744 17.2188 14.749 17.2188C16.5236 17.2188 17.9665 18.618 17.9665 20.3388V23.1273H20.2411V20.3388C20.2411 18.9706 19.7057 17.72 18.8268 16.7763C20.4432 16.12 21.583 14.569 21.583 12.7665H21.5847Z" fill="white"/>
</svg>
