<svg width="21" height="21" viewBox="0 0 21 21" fill="none" xmlns="http://www.w3.org/2000/svg">
<g clip-path="url(#clip0_296_71)">
<path d="M10.5 21C16.299 21 21 16.299 21 10.5C21 4.70101 16.299 0 10.5 0C4.70101 0 0 4.70101 0 10.5C0 16.299 4.70101 21 10.5 21Z" fill="#26A17B"/>
<path fill-rule="evenodd" clip-rule="evenodd" d="M11.7612 11.4076V11.4063C11.689 11.4115 11.3169 11.4339 10.4868 11.4339C9.82396 11.4339 9.35737 11.4142 9.19331 11.4063V11.4083C6.64181 11.296 4.73737 10.8518 4.73737 10.3202C4.73737 9.78863 6.64181 9.34501 9.19331 9.23082V10.9659C9.36 10.9778 9.83775 11.006 10.4979 11.006C11.29 11.006 11.6871 10.9732 11.7612 10.9666V9.23213C14.3075 9.34566 16.2073 9.78994 16.2073 10.3202C16.2073 10.8518 14.3075 11.2947 11.7612 11.4076ZM11.7612 9.05166V7.49898H15.3142V5.13123H5.64037V7.49898H9.19331V9.05101C6.30581 9.18357 4.13428 9.75582 4.13428 10.4409C4.13428 11.1261 6.30581 11.6977 9.19331 11.8309V16.8066H11.7612V11.8296C14.6441 11.697 16.8104 11.1254 16.8104 10.4409C16.8104 9.75648 14.6441 9.18488 11.7612 9.05166Z" fill="white"/>
</g>
<defs>
<clipPath id="clip0_296_71">
<rect width="21" height="21" fill="white"/>
</clipPath>
</defs>
</svg>
